<?xml version="1.0" encoding="UTF-8" standalone="no" ?>
<!DOCTYPE svg PUBLIC "-//W3C//DTD SVG 1.1//EN" "http://www.w3.org/Graphics/SVG/1.1/DTD/svg11.dtd">
<svg xmlns="http://www.w3.org/2000/svg" xmlns:xlink="http://www.w3.org/1999/xlink" version="1.1" width="1280" height="1024" viewBox="0 0 1280 1024" xml:space="preserve">
<desc>Created with Fabric.js 5.3.0</desc>
<defs>
</defs>
<g transform="matrix(1 0 0 1 640 512)" id="background-logo"  >
<rect style="stroke: none; stroke-width: 0; stroke-dasharray: none; stroke-linecap: butt; stroke-dashoffset: 0; stroke-linejoin: miter; stroke-miterlimit: 4; fill: rgb(255,255,255); fill-opacity: 0; fill-rule: nonzero; opacity: 1;"  paint-order="stroke"  x="-640" y="-512" rx="0" ry="0" width="1280" height="1024" />
</g>
<g transform="matrix(1.9211538461538462 0 0 1.9211538461538462 640 395.6864080388972)" id="logo-logo"  >
<g style=""  paint-order="stroke"   >
		<g transform="matrix(0.917930923744532 0 0 0.9179309237445321 0 0)"  >
<g style=""  paint-order="stroke"   >
		<g transform="matrix(1 0 0 1 0 0)"  >
<linearGradient id="SVGID_2_183674" gradientUnits="userSpaceOnUse" gradientTransform="matrix(1 0 0 1 -100 -100)"  x1="0" y1="0" x2="0" y2="200">
<stop offset="0%" style="stop-color:rgb(23,234,217);stop-opacity: 1"/>
<stop offset="100%" style="stop-color:rgb(96,120,234);stop-opacity: 1"/>
</linearGradient>
<polygon style="stroke: none; stroke-width: 1; stroke-dasharray: none; stroke-linecap: butt; stroke-dashoffset: 0; stroke-linejoin: miter; stroke-miterlimit: 4; fill: url(#SVGID_2_183674); fill-rule: nonzero; opacity: 1;"  paint-order="stroke"  points="100,100 0,100 0,95.12 95.12,95.12 95.12,-95.12 -95.12,-95.12 -95.12,0 -100,0 -100,-100 100,-100 100,100 " />
</g>
</g>
</g>
</g>
</g>
<g transform="matrix(1.9211538461538462 0 0 1.9211538461538462 640.7300384615384 668.1462048112545)" id="text-logo"  >
<g style=""  paint-order="stroke"   >
		<g transform="matrix(1 0 0 1 5.684342e-14 0)" id="text-logo-path-0"  >
<path style="stroke: rgb(255,255,255); stroke-width: 0; stroke-dasharray: none; stroke-linecap: butt; stroke-dashoffset: 0; stroke-linejoin: miter; stroke-miterlimit: 4; fill: rgb(49,192,223); fill-rule: nonzero; opacity: 1;"  paint-order="stroke"  transform=" translate(-277.2, 14)" d="M 4 -28 L 4 0 L 16 0 L 16 -2.4 L 6.8 -2.4 L 6.8 -12.8 L 13.6 -12.8 L 13.6 -15.2 L 6.8 -15.2 L 6.8 -25.6 L 15.6 -25.6 L 15.6 -28 Z M 33.52 0 L 36.32 0 L 37.92 -7.6 L 45.08 -7.6 L 46.68 0 L 49.48 0 L 43.6 -28 L 39.4 -28 Z M 38.44 -10 L 41.52 -24.68 L 44.6 -10 Z M 75 0.4 C 78.76 0.4 81.8 -0.64 81.8 -6 L 81.8 -6.8 C 81.8 -13.24 71 -17.36 71 -21.2 C 71 -24.84 72.56 -25.6 75 -25.6 C 77.44 -25.6 79 -24.84 79 -21.2 L 79 -19.6 L 81.8 -19.6 L 81.8 -22 C 81.8 -27.36 78.8 -28.4 75 -28.4 C 71.24 -28.4 68.2 -27.36 68.2 -22 L 68.2 -21.2 C 68.2 -15.44 79 -11.32 79 -6.8 C 79 -3.16 77.44 -2.4 75 -2.4 C 72.56 -2.4 71 -3.16 71 -6.8 L 71 -8.88 L 68.2 -8.88 L 68.2 -6 C 68.2 -0.72 71.2 0.4 75 0.4 Z M 106.48 -10.8 L 106.48 0 L 109.28 0 L 109.28 -10.8 L 115.84 -28 L 113.04 -28 L 107.88 -14.48 L 102.72 -28 L 99.92 -28 Z M 166.88 -21.2 L 166.88 -17.2 L 169.68 -17.2 L 169.68 -22 C 169.68 -27.36 166.68 -28.4 162.88 -28.4 C 159.12 -28.4 156.08 -27.36 156.08 -22 L 156.08 -6 C 156.08 -0.64 159.12 0.4 162.88 0.4 C 166.68 0.4 169.68 -0.72 169.68 -6 L 169.68 -7.68 L 166.88 -7.68 L 166.88 -6.8 C 166.88 -3.16 165.32 -2.4 162.88 -2.4 C 160.44 -2.4 158.88 -3.16 158.88 -6.8 L 158.88 -21.2 C 158.88 -24.84 160.44 -25.6 162.88 -25.6 C 165.32 -25.6 166.88 -24.84 166.88 -21.2 Z M 190 -22 L 190 -6 C 190 -0.64 193.04 0.4 196.8 0.4 C 200.6 0.4 203.6 -0.72 203.6 -6 L 203.6 -22 C 203.6 -27.36 200.6 -28.4 196.8 -28.4 C 193.04 -28.4 190 -27.36 190 -22 Z M 192.8 -6.8 L 192.8 -21.2 C 192.8 -24.84 194.36 -25.6 196.8 -25.6 C 199.24 -25.6 200.8 -24.84 200.8 -21.2 L 200.8 -6.8 C 200.8 -3.16 199.24 -2.4 196.8 -2.4 C 194.36 -2.4 192.8 -3.16 192.8 -6.8 Z M 224.92 -28 L 224.92 0 L 227.72 0 L 227.72 -21.2 L 236.44 0 L 239.24 0 L 239.24 -28 L 236.44 -28 L 236.44 -6.8 L 227.72 -28 Z M 258.76 -28 L 264.64 0 L 268.84 0 L 274.72 -28 L 271.92 -28 L 266.76 -3.32 L 261.56 -28 Z M 294.24 -28 L 294.24 0 L 306.24 0 L 306.24 -2.4 L 297.04 -2.4 L 297.04 -12.8 L 303.84 -12.8 L 303.84 -15.2 L 297.04 -15.2 L 297.04 -25.6 L 305.84 -25.6 L 305.84 -28 Z M 326.16 0 L 328.96 0 L 328.96 -10.4 L 331.76 -10.4 L 336.76 0 L 339.76 0 L 334.64 -10.72 C 337 -11.32 338.56 -12.96 338.56 -16.8 L 338.56 -21.6 C 338.56 -26.96 335.56 -28 331.76 -28 L 326.16 -28 Z M 328.96 -12.8 L 328.96 -25.6 L 331.76 -25.6 C 334.2 -25.6 335.76 -24.84 335.76 -21.2 L 335.76 -17.2 C 335.76 -13.56 334.2 -12.8 331.76 -12.8 Z M 369.68 -28 L 356.48 -28 L 356.48 -25.6 L 361.68 -25.6 L 361.68 0 L 364.48 0 L 364.48 -25.6 L 369.68 -25.6 Z M 421.12 -28 L 407.92 -28 L 407.92 -25.6 L 413.12 -25.6 L 413.12 0 L 415.92 0 L 415.92 -25.6 L 421.12 -25.6 Z M 439.64 -22 L 439.64 -6 C 439.64 -0.64 442.68 0.4 446.44 0.4 C 450.24 0.4 453.24 -0.72 453.24 -6 L 453.24 -22 C 453.24 -27.36 450.24 -28.4 446.44 -28.4 C 442.68 -28.4 439.64 -27.36 439.64 -22 Z M 442.44 -6.8 L 442.44 -21.2 C 442.44 -24.84 444 -25.6 446.44 -25.6 C 448.88 -25.6 450.44 -24.84 450.44 -21.2 L 450.44 -6.8 C 450.44 -3.16 448.88 -2.4 446.44 -2.4 C 444 -2.4 442.44 -3.16 442.44 -6.8 Z M 473.96 -22 L 473.96 -6 C 473.96 -0.64 477 0.4 480.76 0.4 C 484.56 0.4 487.56 -0.72 487.56 -6 L 487.56 -22 C 487.56 -27.36 484.56 -28.4 480.76 -28.4 C 477 -28.4 473.96 -27.36 473.96 -22 Z M 476.76 -6.8 L 476.76 -21.2 C 476.76 -24.84 478.32 -25.6 480.76 -25.6 C 483.2 -25.6 484.76 -24.84 484.76 -21.2 L 484.76 -6.8 C 484.76 -3.16 483.2 -2.4 480.76 -2.4 C 478.32 -2.4 476.76 -3.16 476.76 -6.8 Z M 508.88 -28 L 508.88 0 L 518.88 0 L 518.88 -2.4 L 511.68 -2.4 L 511.68 -28 Z M 543.6 0.4 C 547.36 0.4 550.4 -0.64 550.4 -6 L 550.4 -6.8 C 550.4 -13.24 539.6 -17.36 539.6 -21.2 C 539.6 -24.84 541.16 -25.6 543.6 -25.6 C 546.04 -25.6 547.6 -24.84 547.6 -21.2 L 547.6 -19.6 L 550.4 -19.6 L 550.4 -22 C 550.4 -27.36 547.4 -28.4 543.6 -28.4 C 539.84 -28.4 536.8 -27.36 536.8 -22 L 536.8 -21.2 C 536.8 -15.44 547.6 -11.32 547.6 -6.8 C 547.6 -3.16 546.04 -2.4 543.6 -2.4 C 541.16 -2.4 539.6 -3.16 539.6 -6.8 L 539.6 -8.88 L 536.8 -8.88 L 536.8 -6 C 536.8 -0.72 539.8 0.4 543.6 0.4 Z" stroke-linecap="round" />
</g>
</g>
</g>
<g transform="matrix(1.9211538461538462 0 0 1.9211538461538462 644.1304807692308 399.1428096194262)" id="tagline-3a78d944-c0db-44d4-8ad5-60158c925687-logo"  >
<g style=""  paint-order="stroke"   >
		<g transform="matrix(1 0 0 1 0 0)" id="tagline-3a78d944-c0db-44d4-8ad5-60158c925687-logo-path-0"  >
<linearGradient id="SVGID_183675" gradientUnits="userSpaceOnUse" gradientTransform="matrix(1 0 0 1 8.600000000000001 -60.2)"  x1="-8.600000000000023" y1="-15.406040000000019" x2="-8.600000000000023" y2="81.59395999999998">
<stop offset="0%" style="stop-color:rgb(23,234,217);stop-opacity: 1"/>
<stop offset="100%" style="stop-color:rgb(96,120,234);stop-opacity: 1"/>
</linearGradient>
<path style="stroke: rgb(255,255,255); stroke-width: 0; stroke-dasharray: none; stroke-linecap: butt; stroke-dashoffset: 0; stroke-linejoin: miter; stroke-miterlimit: 4; fill: url(#SVGID_183675); fill-rule: nonzero; opacity: 1;"  paint-order="stroke"  transform=" translate(-21.5, 30.1)" d="M 8.6 -60.2 L 8.6 0 L 34.4 0 L 34.4 -5.16 L 14.62 -5.16 L 14.62 -27.52 L 29.24 -27.52 L 29.24 -32.68 L 14.62 -32.68 L 14.62 -55.04 L 33.54 -55.04 L 33.54 -60.2 Z" stroke-linecap="round" />
</g>
</g>
</g>
</svg>